<svg width="106" height="106" viewBox="0 0 106 106" fill="none" xmlns="http://www.w3.org/2000/svg">
<g clip-path="url(#clip0_123_169)">
<path d="M50.7226 4.55542C35.332 4.55542 21.5442 11.4109 12.2424 22.2331L3.77358 36.0588L3.77196 36.058C1.34259 41.9859 0.00012207 48.4742 0.00012207 55.2779C0.00012207 83.2909 22.7096 106 50.7226 106C55.122 106 59.3896 105.439 63.4598 104.387L82.615 94.7172C94.1003 85.4186 101.445 71.2071 101.445 55.2779C101.445 27.2641 78.7364 4.55542 50.7226 4.55542Z" fill="#DAE5ED"/>
<path d="M91.6307 22.6772V20.5438C91.6307 18.8697 90.2737 17.5127 88.5997 17.5127C86.9256 17.5127 85.5686 18.8697 85.5686 20.5438V22.6772H91.6307Z" fill="#8FADC5"/>
<path d="M64.838 22.6772V20.5438C64.838 18.8697 63.481 17.5127 61.8069 17.5127C60.1329 17.5127 58.7759 18.8697 58.7759 20.5438V22.6772H64.838Z" fill="#8FADC5"/>
<path d="M38.0452 22.6772V20.5438C38.0452 18.8697 36.6882 17.5127 35.0134 17.5127C33.3393 17.5127 31.9823 18.8697 31.9823 20.5438V22.6772H38.0452Z" fill="#8FADC5"/>
<path d="M102.969 27.8408H93.4867C93.2053 30.0098 92.7718 32.1311 92.1952 34.1917H102.969C104.643 34.1917 106 32.7699 106 31.0166C106 29.2625 104.643 27.8408 102.969 27.8408Z" fill="#002338"/>
<path d="M99.3766 31.0166C99.3766 29.2625 100.734 27.8408 102.408 27.8408H93.4867C93.2053 30.0098 92.7718 32.1311 92.1952 34.1917H102.408C100.734 34.1917 99.3766 32.7699 99.3766 31.0166Z" fill="#002338"/>
<path d="M94.9372 27.8408H8.05476C6.38801 30.4279 4.95416 33.1783 3.77344 36.0598C9.52743 55.329 27.3822 69.3779 48.5219 69.3779C72.569 69.3771 92.3671 51.2029 94.9372 27.8408Z" fill="#4F7DA1"/>
<path d="M48.5981 27.8408H8.05478C6.38802 30.4279 4.95416 33.1783 3.77344 36.0598C9.52745 55.3291 27.3823 69.3781 48.5221 69.3781C48.5407 69.3781 48.5585 69.3773 48.5771 69.3773C31.7097 61.6823 32.0575 35.573 48.5981 27.8408Z" fill="#1B557D"/>
<path d="M96.3452 22.2283H12.2455C10.6095 24.1304 9.11663 26.1578 7.77417 28.2904H96.3452C98.0192 28.2904 99.3762 26.9334 99.3762 25.2593C99.3762 23.5853 98.0192 22.2283 96.3452 22.2283Z" fill="#E2E9F2"/>
<path d="M44.8328 25.2594C44.8328 23.5854 46.1898 22.2275 47.8638 22.2275H12.2456C10.6095 24.1304 9.11664 26.1579 7.77417 28.2897H47.8638C46.1898 28.2905 44.8328 26.9335 44.8328 25.2594Z" fill="#C7D6E5"/>
<path d="M32.4944 61.6386C30.8624 61.2658 29.2377 62.2864 28.864 63.9175L21.377 96.6535C23.1149 97.8884 24.9345 99.0142 26.8245 100.026L34.7733 65.2697C35.147 63.6377 34.1264 62.0122 32.4944 61.6386Z" fill="#494970"/>
<path d="M32.4944 61.6386C30.8624 61.2658 29.2377 62.2864 28.864 63.9175L21.377 96.6535C23.1149 97.8884 24.9345 99.0142 26.8245 100.026L34.7733 65.2697C35.147 63.6377 34.1264 62.0122 32.4944 61.6386Z" fill="#4F7DA1"/>
<path d="M74.0606 90.7068C74.1447 90.7068 74.2264 90.7109 74.3097 90.7133L68.1812 63.9173C67.8076 62.2853 66.1829 61.2655 64.5509 61.6384C62.9189 62.012 61.8983 63.6375 62.2719 65.2695L68.4465 92.2677C70.0849 91.277 72.0064 90.7068 74.0606 90.7068Z" fill="#494970"/>
<path d="M74.0606 90.7068C74.1447 90.7068 74.2264 90.7109 74.3097 90.7133L68.1812 63.9173C67.8076 62.2853 66.1829 61.2655 64.5509 61.6384C62.9189 62.012 61.8983 63.6375 62.2719 65.2695L68.4465 92.2677C70.0849 91.277 72.0064 90.7068 74.0606 90.7068Z" fill="#4F7DA1"/>
<path d="M87.9259 11.2266C86.9959 11.2266 86.2422 10.4729 86.2422 9.54285C86.2422 8.03864 86.8253 7.18787 87.211 6.62581C87.4941 6.21255 87.5895 6.07346 87.5895 5.6133C87.5895 5.15314 87.4941 5.01404 87.211 4.60078C86.8253 4.03873 86.2422 3.18796 86.2422 1.68375C86.2422 0.753723 86.9959 0 87.9259 0C88.856 0 89.6105 0.753723 89.6105 1.68375C89.6105 2.14471 89.7059 2.28381 89.9882 2.69626C90.3747 3.25912 90.957 4.10909 90.957 5.6133C90.957 7.11751 90.3747 7.96747 89.9882 8.53033C89.7059 8.94278 89.6105 9.08188 89.6105 9.54285C89.6105 10.4729 88.856 11.2266 87.9259 11.2266Z" fill="#8FADC5"/>
<path d="M67.8318 11.2266C66.9017 11.2266 66.1472 10.4729 66.1472 9.54285C66.1472 8.03864 66.7303 7.18787 67.1161 6.62581C67.3991 6.21255 67.4945 6.07346 67.4945 5.6133C67.4945 5.15314 67.3991 5.01404 67.1161 4.60078C66.7303 4.03873 66.1472 3.18796 66.1472 1.68375C66.1472 0.753723 66.9017 0 67.8318 0C68.7618 0 69.5155 0.753723 69.5155 1.68375C69.5155 2.14471 69.6109 2.28381 69.894 2.69626C70.2798 3.25912 70.8628 4.10909 70.8628 5.6133C70.8628 7.11751 70.2798 7.96747 69.894 8.53033C69.6109 8.94278 69.5155 9.08188 69.5155 9.54285C69.5155 10.4729 68.7618 11.2266 67.8318 11.2266Z" fill="#8FADC5"/>
<path d="M27.6421 11.2266C26.7121 11.2266 25.9584 10.4729 25.9584 9.54285C25.9584 8.03864 26.5415 7.18787 26.9272 6.62581C27.2103 6.21255 27.3057 6.07346 27.3057 5.6133C27.3057 5.15314 27.2103 5.01404 26.9272 4.60078C26.5415 4.03873 25.9584 3.18796 25.9584 1.68375C25.9584 0.753723 26.7121 0 27.6421 0C28.5721 0 29.3259 0.753723 29.3259 1.68375C29.3259 2.14471 29.4213 2.28381 29.7043 2.69626C30.0909 3.25912 30.6732 4.10909 30.6732 5.6133C30.6732 7.11751 30.0909 7.96747 29.7043 8.53033C29.4213 8.94278 29.3259 9.08188 29.3259 9.54285C29.3259 10.4729 28.5721 11.2266 27.6421 11.2266Z" fill="#8FADC5"/>
<path d="M47.7371 11.2266C46.8071 11.2266 46.0533 10.4729 46.0533 9.54285C46.0533 8.03864 46.6364 7.18787 47.0214 6.62581C47.3044 6.21255 47.3999 6.07346 47.3999 5.6133C47.3999 5.15314 47.3044 5.01404 47.0214 4.60078C46.6364 4.03873 46.0533 3.18796 46.0533 1.68375C46.0533 0.753723 46.8071 0 47.7371 0C48.6671 0 49.4208 0.753723 49.4208 1.68375C49.4208 2.14471 49.5163 2.28381 49.7993 2.69626C50.1851 3.25912 50.7682 4.10909 50.7682 5.6133C50.7682 7.11751 50.1851 7.96747 49.7993 8.53033C49.5163 8.94278 49.4208 9.08188 49.4208 9.54285C49.4208 10.4729 48.6671 11.2266 47.7371 11.2266Z" fill="#8FADC5"/>
<path d="M25.7214 77.6575L21.377 96.6534C23.1149 97.8883 24.9345 99.014 26.8245 100.026L31.6347 78.9927C29.8272 81.0573 26.4613 80.2874 25.7214 77.6575Z" fill="#002338"/>
<path d="M71.3424 77.7407C70.5377 80.3513 67.1508 81.0322 65.3967 78.9328L68.4464 92.2677C70.0849 91.2778 72.0064 90.7069 74.0605 90.7069C74.1446 90.7069 74.2263 90.7109 74.3096 90.7133L71.3424 77.7407Z" fill="#002338"/>
<path d="M73.8366 90.2581C67.8318 90.2581 62.9634 95.1257 62.9634 101.131C62.9634 102.265 63.1373 103.358 63.4599 104.387C70.5702 102.548 77.0739 99.2041 82.6152 94.7173C80.6371 92.0146 77.4426 90.2581 73.8366 90.2581Z" fill="#002338"/>
<path d="M73.12 96.0663C73.0044 96.0801 72.8879 96.089 72.7682 96.089C71.1589 96.089 69.8528 94.7837 69.8528 93.1735C69.8528 91.9532 70.6033 90.9099 71.6668 90.4749C66.7013 91.4809 62.9634 95.869 62.9634 101.131C62.9634 102.265 63.1381 103.359 63.4599 104.387C67.3879 103.371 71.129 101.894 74.6259 100.021L73.12 96.0663Z" fill="#002338"/>
<path d="M73.8364 95.936C70.9671 95.936 68.6412 98.2619 68.6412 101.131C68.6412 101.661 68.7213 102.172 68.8685 102.654C72.0864 101.421 75.1474 99.8721 78.0118 98.0403C77.0648 96.7642 75.5477 95.936 73.8364 95.936Z" fill="#FC6D6D"/>
<path d="M73.8364 95.936C70.9671 95.936 68.6412 98.2619 68.6412 101.131C68.6412 101.661 68.7213 102.172 68.8685 102.654C72.0864 101.421 75.1474 99.8721 78.0118 98.0403C77.0648 96.7642 75.5477 95.936 73.8364 95.936Z" fill="#DAE5ED"/>
<path d="M67.68 88.4669H29.3655C28.4354 88.4669 27.6809 87.7131 27.6809 86.7831C27.6809 85.8531 28.4354 85.0994 29.3655 85.0994H67.68C68.61 85.0994 69.3645 85.8531 69.3645 86.7831C69.3637 87.7131 68.61 88.4669 67.68 88.4669Z" fill="#002338"/>
<path d="M72.0168 97.7475C72.0168 97.1224 72.2295 96.5482 72.5845 96.0889C70.3201 96.6493 68.6412 98.6937 68.6412 101.131C68.6412 101.661 68.7213 102.172 68.8685 102.654C70.6226 101.982 72.3274 101.213 73.982 100.358C72.8474 100.031 72.0168 98.9873 72.0168 97.7475Z" fill="#8FADC5"/>
</g>
<defs>
<clipPath id="clip0_123_169">
<rect width="106" height="106" fill="white"/>
</clipPath>
</defs>
</svg>
