<svg width="24" height="24" viewBox="0 0 24 24" fill="none" xmlns="http://www.w3.org/2000/svg">
<path d="M13.0855 2.71565C13.3022 2.71565 13.5058 2.80003 13.662 2.95617L19.3782 8.62903C19.9034 9.15421 20.5978 9.41746 21.2926 9.41737C21.9743 9.41732 22.6565 9.16387 23.1791 8.65584C23.7847 8.06718 24.0773 7.24795 23.9819 6.40818C23.9132 5.80303 23.6378 5.23218 23.2045 4.79901L21.8575 3.45984L22.7817 2.53443C23.1476 2.1681 23.1473 1.57443 22.7809 1.20857C22.4145 0.842713 21.8209 0.842994 21.455 1.20937L20.5278 2.13778L19.1718 0.789557C18.1312 -0.250974 16.4261 -0.263021 15.3709 0.762744C15.15 0.977572 14.971 1.22357 14.8368 1.49076C14.3497 1.07053 13.7354 0.840557 13.0856 0.840557C12.368 0.840557 11.6934 1.11998 11.186 1.62735C10.6787 2.13468 10.3992 2.80935 10.3992 3.52687C10.3992 4.24438 10.6786 4.91901 11.1839 5.42432L14.2033 8.46276L9.69513 12.9828C9.32951 13.3493 9.33026 13.943 9.69687 14.3086C9.87986 14.4911 10.1194 14.5823 10.359 14.5823C10.5993 14.5823 10.8396 14.4905 11.0228 14.3069L15.525 9.79279L18.6108 12.8981C19.1182 13.4054 19.7928 13.6849 20.5103 13.6849C21.2279 13.6849 21.9025 13.4055 22.4099 12.8981C22.776 12.5319 22.776 11.9383 22.4099 11.5722C22.0438 11.2061 21.4501 11.2061 21.084 11.5723C20.9307 11.7255 20.7271 11.8098 20.5104 11.8098C20.2937 11.8098 20.09 11.7254 19.9389 11.5743L12.5118 4.10048C12.3586 3.94724 12.2742 3.74357 12.2742 3.52692C12.2742 3.31026 12.3586 3.10654 12.5118 2.95331C12.6651 2.80003 12.8688 2.71565 13.0855 2.71565ZM20.7022 7.30115L16.6696 3.29188C16.5109 3.13321 16.4244 2.92228 16.426 2.69784C16.4276 2.4734 16.517 2.26368 16.6779 2.10726C16.8383 1.95135 17.0475 1.87349 17.2569 1.87349C17.4709 1.87349 17.6852 1.95482 17.8478 2.11738L21.8804 6.12674C22.0503 6.29667 22.1038 6.48862 22.1187 6.61973C22.148 6.87834 22.0581 7.13043 21.8721 7.31137C21.5478 7.62656 21.0239 7.62285 20.7022 7.30115ZM5.38197 11.1503C5.38071 11.1491 5.3794 11.1478 5.37813 11.1465C4.87076 10.6391 4.19613 10.3596 3.47857 10.3596C2.76101 10.3596 2.08643 10.6391 1.57905 11.1464C0.565381 12.1602 0.532803 13.7891 1.48122 14.8424C1.21718 14.9761 0.97399 15.1536 0.761271 15.3724C-0.264541 16.4276 -0.252447 18.1327 0.786256 19.1713L2.1363 20.5292L1.2079 21.4565C0.841568 21.8224 0.841193 22.416 1.20705 22.7823C1.39015 22.9657 1.63024 23.0573 1.87043 23.0573C2.11015 23.0573 2.34991 22.966 2.53296 22.7832L3.45836 21.8589L4.79937 23.2077C5.23061 23.6391 5.80146 23.9145 6.40676 23.9833C6.51124 23.9952 6.6153 24.001 6.7188 24.001C7.44677 24.001 8.13902 23.7107 8.65446 23.1805C8.83844 22.9912 8.98849 22.7809 9.10572 22.5573C9.62238 23.0467 10.2869 23.2922 10.9519 23.2922C11.6399 23.2922 12.3278 23.0303 12.8515 22.5066C13.8982 21.4599 13.8988 19.7573 12.8536 18.7097L5.38197 11.1503ZM7.30994 21.8736C7.12901 22.0597 6.87686 22.1496 6.6184 22.1202C6.48724 22.1053 6.29524 22.0519 6.12724 21.8839L2.11413 17.8474C1.79435 17.5276 1.79065 17.0037 2.10588 16.6794C2.26226 16.5185 2.47202 16.429 2.69641 16.4274C2.69843 16.4274 2.70044 16.4274 2.70246 16.4274C2.89858 16.4274 3.08407 16.4949 3.23172 16.6176L7.41766 20.8528C7.61543 21.1699 7.5806 21.5951 7.30994 21.8736ZM10.3798 21.1822L2.90885 13.6234C2.90758 13.6222 2.90627 13.6208 2.90496 13.6195C2.58869 13.3033 2.58869 12.7886 2.90496 12.4723C3.05819 12.319 3.26186 12.2347 3.47852 12.2347C3.69447 12.2347 3.89758 12.3185 4.05063 12.4708L11.5216 20.0295C11.5229 20.0308 11.5242 20.0321 11.5255 20.0334C11.8418 20.3497 11.8418 20.8644 11.5255 21.1807C11.2098 21.4966 10.6962 21.497 10.3798 21.1822Z" fill="#003E66"/>
</svg>
