<svg width="14" height="14" viewBox="0 0 14 14" fill="none" xmlns="http://www.w3.org/2000/svg">
<path d="M13.7131 2.44474C13.4474 2.30108 13.1155 2.39998 12.9719 2.66574L11.4716 5.44138H2.52834L1.02807 2.66574C0.884404 2.39998 0.552541 2.30108 0.286901 2.44474C0.021261 2.5883 -0.0777532 2.92016 0.0659082 3.18581L1.57782 5.98292L0.434087 8.00618C0.431737 8.01024 0.429494 8.0144 0.427251 8.01857C0.248663 8.35471 0.259023 8.75024 0.455129 9.07655C0.651235 9.40287 0.995595 9.5977 1.37627 9.5977H1.64074V11.8125C1.64074 13.0187 2.62201 14 3.82823 14H10.1719C11.378 14 12.8124 13.5 12.4088 9.5977C11.9312 9.5977 12.3711 9.5977 12.069 9.5977C11.767 9.5977 12.069 9.5977 11.33 9.5977C11.622 12.9062 10.7749 12.9062 10.1719 12.9062H7.54687V10.3906C7.54687 10.0886 7.30206 9.84369 7 9.84369C6.69794 9.84369 6.45312 10.0886 6.45312 10.3906V12.9062H3.82823C3.22507 12.9062 2.73449 12.4155 2.73449 11.8125V9.5977H4.62398C5.30362 9.5977 5.92398 9.22481 6.24292 8.62473L6.98633 7.22602L7.72974 8.62463C8.04878 9.22481 8.66914 9.5977 9.34878 9.5977H12.4088C12.7895 9.5977 13.3214 9.40287 13.5175 9.07655C13.7136 8.75024 13.724 8.35471 13.5453 8.01857C13.5432 8.0144 13.5408 8.01024 13.5385 8.00618L12.4088 6.00771L13.9341 3.18581C14.0778 2.92016 13.9787 2.5883 13.7131 2.44474ZM5.27702 8.11139C5.14842 8.35343 4.89806 8.50393 4.62387 8.50393H1.40917L2.52204 6.53515H6.11485L5.27702 8.11139ZM9.34868 8.50393C9.07449 8.50393 8.82423 8.35343 8.69553 8.11139L7.8577 6.53515H11.4505L12.5635 8.50393H9.34868ZM5.88916 3.72137C6.17606 3.93745 6.44704 4.14147 6.59967 4.33309C6.70349 4.46319 6.86082 4.53902 7.02734 4.53902C7.19376 4.53902 7.3512 4.46319 7.45502 4.33309C7.60765 4.14147 7.87863 3.93745 8.16553 3.72137C8.81569 3.23163 9.62489 2.62216 9.62489 1.6461C9.62489 1.18135 9.46286 0.759762 9.1687 0.458976C8.87924 0.162997 8.48297 0 8.05273 0C7.61085 0 7.27386 0.14313 7.02734 0.351095C6.78072 0.14313 6.44373 0 6.00195 0C5.57172 0 5.17534 0.162997 4.88588 0.458976C4.59172 0.759762 4.42969 1.18135 4.42969 1.6461C4.42969 2.62216 5.23889 3.23163 5.88916 3.72137ZM6.00195 1.09377C6.24655 1.09377 6.33905 1.18402 6.39246 1.26264C6.45975 1.36197 6.47897 1.47488 6.48239 1.49784C6.49734 1.78431 6.73105 2.00179 7.01848 2.0067C7.02158 2.0067 7.02457 2.00681 7.02766 2.00681C7.31264 2.00681 7.55019 1.77833 7.57251 1.49325C7.57251 1.49325 7.5896 1.3812 7.64952 1.28229C7.70613 1.18904 7.7982 1.09377 8.05263 1.09377C8.34785 1.09377 8.53114 1.30536 8.53114 1.6461C8.53114 2.07666 8.01076 2.46867 7.50746 2.84764C7.34564 2.96951 7.18115 3.09342 7.02734 3.22362C6.87343 3.09342 6.70894 2.96951 6.54712 2.84764C6.04382 2.46867 5.52344 2.07666 5.52344 1.6461C5.52344 1.30536 5.70683 1.09377 6.00195 1.09377Z" fill="white"/>
</svg>
