<svg width="24" height="23" viewBox="0 0 24 23" fill="none" xmlns="http://www.w3.org/2000/svg">
<path fill-rule="evenodd" clip-rule="evenodd" d="M22.2402 14.6268C22.6447 14.6268 22.9727 14.2988 22.9727 13.8943V5.15039C22.9727 3.66958 21.7679 2.46484 20.2871 2.46484H18.8711V1.73242C18.8711 1.32793 18.5432 1 18.1387 1C17.7342 1 17.4062 1.32793 17.4062 1.73242V2.46484H14.7695V1.73242C14.7695 1.32793 14.4416 1 14.0371 1C13.6326 1 13.3047 1.32793 13.3047 1.73242V2.46484H10.668V1.73242C10.668 1.32793 10.34 1 9.93555 1C9.53105 1 9.20312 1.32793 9.20312 1.73242V2.46484H6.56641V1.73242C6.56641 1.32793 6.23848 1 5.83398 1C5.42949 1 5.10156 1.32793 5.10156 1.73242V2.46484H3.68555C2.20474 2.46484 1 3.66958 1 5.15039V19.7988C1 21.0104 1.98569 21.9961 3.19727 21.9961H13.4327C13.8372 21.9961 14.1651 21.6682 14.1651 21.2637C14.1651 20.8592 13.8372 20.5312 13.4327 20.5312H3.19727C2.79341 20.5312 2.46484 20.2027 2.46484 19.7988V8.8125H21.5078V13.8943C21.5078 14.2988 21.8357 14.6268 22.2402 14.6268ZM3.68555 3.92969C3.01245 3.92969 2.46484 4.47729 2.46484 5.15039V7.34766H21.5078V5.15039C21.5078 4.47729 20.9602 3.92969 20.2871 3.92969H18.8711V4.66211C18.8711 5.0666 18.5432 5.39453 18.1387 5.39453C17.7342 5.39453 17.4062 5.0666 17.4062 4.66211V3.92969H14.7695V4.66211C14.7695 5.0666 14.4416 5.39453 14.0371 5.39453C13.6326 5.39453 13.3047 5.0666 13.3047 4.66211V3.92969H10.668V4.66211C10.668 5.0666 10.34 5.39453 9.93555 5.39453C9.53105 5.39453 9.20312 5.0666 9.20312 4.66211V3.92969H6.56641V4.66211C6.56641 5.0666 6.23848 5.39453 5.83398 5.39453C5.42949 5.39453 5.10156 5.0666 5.10156 4.66211V3.92969H3.68555Z" fill="#003E66" stroke="#003E66" stroke-width="0.4"/>
</svg>
