<svg width="24" height="24" viewBox="0 0 24 24" fill="none" xmlns="http://www.w3.org/2000/svg">
<path d="M23.0623 6.65624H19.1041C19.2083 6.36272 19.2654 6.04723 19.2654 5.71874C19.2654 4.52233 18.466 3.97008 17.9882 3.64013C17.5275 3.32189 17.4373 3.23126 17.4373 2.90624C17.4373 2.38842 17.0176 1.96875 16.4998 1.96875H16.4529C16.2354 1.96875 16.0244 2.04437 15.8565 2.18298C15.6117 2.38476 15.2479 2.70757 14.8852 3.11132C14.5805 2.76763 14.2194 2.51769 13.9094 2.30364C13.2491 1.84753 12.9571 1.61718 12.9571 0.937498C12.9571 0.419677 12.5374 0 12.0196 0H11.9529C11.7354 0 11.5245 0.0756224 11.3565 0.214233C10.827 0.650755 9.39732 1.92114 8.71946 3.40759C8.53013 3.24883 8.48436 3.13604 8.48436 2.90624C8.48436 2.38842 8.0645 1.96875 7.54686 1.96875H7.49998C7.28227 1.96875 7.07152 2.04437 6.90343 2.1828C6.23711 2.73229 4.68749 4.17644 4.68749 5.71855C4.68749 6.04723 4.74462 6.36272 4.84881 6.65605H0.937498C0.419677 6.65605 0 7.07591 0 7.59355V8.51512C0 11.694 1.25903 14.5959 3.5451 16.6858C3.89648 17.007 4.26763 17.3051 4.65636 17.5797L2.51037 22.6999C2.31024 23.1774 2.53509 23.7268 3.01263 23.9269C3.13091 23.9765 3.25378 23.9999 3.37463 23.9999C3.74102 23.9999 4.0891 23.7837 4.23961 23.4246L6.28581 18.5431C7.73985 19.2528 9.35997 19.681 11.0625 19.796V23.0623C11.0625 23.5801 11.4822 23.9998 12 23.9998C12.5176 23.9998 12.9375 23.5801 12.9375 23.0623V19.7957C14.5673 19.6845 16.1385 19.2841 17.5578 18.6172L19.5727 23.4246C19.7232 23.7837 20.0712 23.9999 20.4376 23.9999C20.5585 23.9999 20.6814 23.9765 20.7996 23.9269C21.2772 23.7268 21.502 23.1773 21.3019 22.6997L17.4708 13.5593C17.2707 13.0818 16.7215 12.8571 16.2438 13.057C15.7663 13.2572 15.5414 13.8065 15.7415 14.284L16.8321 16.8858C15.6412 17.4569 14.3174 17.8068 12.9375 17.9157V13.8748C12.9375 13.3571 12.5176 12.9373 12 12.9373C11.4822 12.9373 11.0625 13.3571 11.0625 13.8748V17.9159C9.58518 17.8007 8.21776 17.4144 7.01347 16.8068L8.07091 14.2842C8.27104 13.8067 8.04619 13.2572 7.56865 13.057C7.09093 12.8569 6.5418 13.0819 6.34166 13.5593L5.40618 15.7908C3.22411 14.0903 1.87976 11.5151 1.875 8.53123H22.1248C22.1217 10.565 21.5083 12.4619 20.3508 14.0185C20.0418 14.434 20.1282 15.0212 20.5437 15.3301C20.9591 15.6392 21.5463 15.5528 21.8552 15.1373C23.2582 13.2509 23.9998 10.961 23.9998 8.51512V7.59373C23.9998 7.07591 23.5801 6.65624 23.0623 6.65624ZM16.1446 4.52727C16.4015 4.82299 16.6961 5.02642 16.9226 5.18279C17.3747 5.49517 17.3904 5.54314 17.3904 5.71874C17.3904 6.23564 16.9698 6.65624 16.4529 6.65624C15.936 6.65624 15.5154 6.23564 15.5154 5.71874C15.5154 5.40947 15.7789 4.96544 16.1446 4.52727ZM11.5385 2.61529C11.9099 3.20123 12.437 3.56542 12.8437 3.84631C13.5091 4.3059 13.6779 4.47252 13.6779 4.9312C13.6779 5.88243 12.9041 6.65624 11.9531 6.65624C11.1621 6.65624 10.4939 6.12065 10.2914 5.39336C10.2792 5.30016 10.2616 5.2119 10.2396 5.12749C10.2323 5.06304 10.2281 4.99767 10.2281 4.9312C10.2281 4.28374 10.8091 3.40228 11.5385 2.61529ZM6.56249 5.71874C6.56249 5.40947 6.82579 4.96544 7.19145 4.52727C7.44853 4.82299 7.74315 5.02642 7.96965 5.18279C8.25108 5.37725 8.36332 5.46917 8.408 5.55321C8.41679 5.60356 8.4265 5.65355 8.4373 5.70317C8.4373 5.7083 8.43748 5.71324 8.43748 5.71874C8.43748 6.23564 8.01689 6.65624 7.49998 6.65624C6.98308 6.65624 6.56249 6.23564 6.56249 5.71874Z" fill="#003E66"/>
</svg>
