<svg width="14" height="14" viewBox="0 0 14 14" fill="none" xmlns="http://www.w3.org/2000/svg">
<path d="M6.69873 12.9062H1.65916C1.42567 12.9062 1.28489 12.7759 1.22166 12.6983C1.11261 12.5641 1.07041 12.3896 1.10588 12.2192C1.67379 9.49136 4.0811 7.49922 6.86012 7.4346C6.90648 7.43631 6.95283 7.43748 6.99951 7.43748C7.04501 7.43748 7.0903 7.43642 7.13537 7.43471C7.99681 7.45319 8.81829 7.64715 9.57922 8.01256C9.85158 8.14329 10.1782 8.02847 10.309 7.75632C10.4397 7.48405 10.325 7.15732 10.0527 7.02658C9.78387 6.89745 9.50861 6.787 9.22791 6.69408C10.1322 6.01508 10.7183 4.93404 10.7183 3.71874C10.7183 1.66829 9.05007 0 6.99951 0C4.94905 0 3.28077 1.66829 3.28077 3.71874C3.28077 4.93575 3.86844 6.01818 4.77495 6.69696C3.94449 6.97029 3.1652 7.39551 2.48321 7.95648C1.23266 8.98507 0.363217 10.4198 0.0349864 11.9963C-0.0678729 12.4903 0.0553873 12.9977 0.373044 13.3883C0.689205 13.7771 1.158 14 1.65916 14H6.69873C7.00079 14 7.2456 13.7552 7.2456 13.4531C7.2456 13.151 7.00079 12.9062 6.69873 12.9062ZM4.37452 3.71874C4.37452 2.27134 5.55211 1.09375 6.99951 1.09375C8.44691 1.09375 9.6245 2.27134 9.6245 3.71874C9.6245 5.12534 8.51249 6.27698 7.12138 6.34085C7.08079 6.34011 7.04031 6.33914 6.99951 6.33914C6.95678 6.33914 6.91406 6.33978 6.87134 6.34053C5.48322 6.27345 4.37452 5.1232 4.37452 3.71874ZM13.7967 9.8056C13.2818 10.3022 12.7669 10.6008 12.2553 10.1011L11.8132 9.66236C11.8132 9.66236 11.2413 9.917 10.5945 10.5639L10.5634 10.595C9.91653 11.2418 9.66189 11.8137 9.66189 11.8137L10.1007 12.2557C10.6003 12.7675 10.3017 13.2823 9.80512 13.7972C9.55732 14.0541 9.15058 14.0689 8.88494 13.8304L8.87821 13.8243C8.56643 13.5126 8.41892 13.0789 8.42138 12.5879L8.42437 12.5848C8.42875 11.7106 8.90844 10.6542 9.78226 9.77975C10.6566 8.90603 11.713 8.42624 12.5873 8.42196C13.0784 8.41951 13.512 8.56691 13.8238 8.87869L13.8298 8.88552C14.0683 9.15106 14.0536 9.5579 13.7967 9.8056Z" fill="white"/>
</svg>
