<svg width="15" height="11" viewBox="0 0 15 11" fill="none" xmlns="http://www.w3.org/2000/svg">
<path d="M5.25 3.75C5.05109 3.75 4.86032 3.82902 4.71967 3.96967C4.57902 4.11032 4.5 4.30109 4.5 4.5V6C4.5 6.19891 4.57902 6.38968 4.71967 6.53033C4.86032 6.67098 5.05109 6.75 5.25 6.75C5.44891 6.75 5.63968 6.67098 5.78033 6.53033C5.92098 6.38968 6 6.19891 6 6V4.5C6 4.30109 5.92098 4.11032 5.78033 3.96967C5.63968 3.82902 5.44891 3.75 5.25 3.75ZM14.25 4.5C14.4489 4.5 14.6397 4.42098 14.7803 4.28033C14.921 4.13968 15 3.94891 15 3.75V0.75C15 0.551088 14.921 0.360322 14.7803 0.21967C14.6397 0.0790178 14.4489 0 14.25 0H0.75C0.551088 0 0.360322 0.0790178 0.21967 0.21967C0.0790176 0.360322 0 0.551088 0 0.75V3.75C0 3.94891 0.0790176 4.13968 0.21967 4.28033C0.360322 4.42098 0.551088 4.5 0.75 4.5C0.948912 4.5 1.13968 4.57902 1.28033 4.71967C1.42098 4.86032 1.5 5.05109 1.5 5.25C1.5 5.44891 1.42098 5.63968 1.28033 5.78033C1.13968 5.92098 0.948912 6 0.75 6C0.551088 6 0.360322 6.07902 0.21967 6.21967C0.0790176 6.36032 0 6.55109 0 6.75V9.75C0 9.94891 0.0790176 10.1397 0.21967 10.2803C0.360322 10.421 0.551088 10.5 0.75 10.5H14.25C14.4489 10.5 14.6397 10.421 14.7803 10.2803C14.921 10.1397 15 9.94891 15 9.75V6.75C15 6.55109 14.921 6.36032 14.7803 6.21967C14.6397 6.07902 14.4489 6 14.25 6C14.0511 6 13.8603 5.92098 13.7197 5.78033C13.579 5.63968 13.5 5.44891 13.5 5.25C13.5 5.05109 13.579 4.86032 13.7197 4.71967C13.8603 4.57902 14.0511 4.5 14.25 4.5ZM13.5 3.135C13.0656 3.29265 12.6903 3.58022 12.4251 3.95862C12.1599 4.33703 12.0176 4.78791 12.0176 5.25C12.0176 5.71209 12.1599 6.16297 12.4251 6.54138C12.6903 6.91978 13.0656 7.20735 13.5 7.365V9H6C6 8.80109 5.92098 8.61032 5.78033 8.46967C5.63968 8.32902 5.44891 8.25 5.25 8.25C5.05109 8.25 4.86032 8.32902 4.71967 8.46967C4.57902 8.61032 4.5 8.80109 4.5 9H1.5V7.365C1.93436 7.20735 2.30965 6.91978 2.57487 6.54138C2.84008 6.16297 2.98236 5.71209 2.98236 5.25C2.98236 4.78791 2.84008 4.33703 2.57487 3.95862C2.30965 3.58022 1.93436 3.29265 1.5 3.135V1.5H4.5C4.5 1.69891 4.57902 1.88968 4.71967 2.03033C4.86032 2.17098 5.05109 2.25 5.25 2.25C5.44891 2.25 5.63968 2.17098 5.78033 2.03033C5.92098 1.88968 6 1.69891 6 1.5H13.5V3.135Z" fill="white"/>
</svg>
