<svg width="24" height="24" viewBox="0 0 24 24" fill="none" xmlns="http://www.w3.org/2000/svg">
<path d="M16.5008 16.4996C16.5008 17.0174 16.0811 17.4372 15.5633 17.4372C15.0455 17.4372 14.6257 17.0174 14.6257 16.4996C14.6257 15.9818 15.0455 15.5621 15.5633 15.5621C16.0811 15.5621 16.5008 15.9819 16.5008 16.4996ZM15.5633 12.2806C15.0455 12.2806 14.6257 12.7003 14.6257 13.2182C14.6257 13.736 15.0455 14.1557 15.5633 14.1557C16.0811 14.1557 16.5008 13.736 16.5008 13.2182C16.5008 12.7004 16.0811 12.2806 15.5633 12.2806ZM15.5633 18.8435C15.0455 18.8435 14.6257 19.2632 14.6257 19.7811C14.6257 20.2989 15.0455 20.7186 15.5633 20.7186C16.0811 20.7186 16.5008 20.2989 16.5008 19.7811C16.5008 19.2632 16.0811 18.8435 15.5633 18.8435ZM14.5293 6.48421C14.9785 6.22672 15.134 5.65382 14.8764 5.20461C14.619 4.75541 14.046 4.59992 13.5968 4.85746C13.1476 5.11494 12.9921 5.68785 13.2496 6.13705C13.5072 6.58625 14.08 6.74169 14.5293 6.48421ZM22.5949 13.0349V14.6714C22.5949 15.1892 22.1752 15.6089 21.6573 15.6089C21.1403 15.6089 20.7198 16.0295 20.7198 16.5465C20.7198 17.0635 21.1403 17.484 21.6573 17.484C22.1752 17.484 22.5949 17.9038 22.5949 18.4216V20.2498C22.5949 22.3176 20.9125 24 18.8447 24H3.75019C1.68234 24 0 22.3176 0 20.2498V18.4216C0 17.9038 0.419719 17.484 0.937547 17.484C1.45453 17.484 1.87509 17.0635 1.87509 16.5465C1.87509 16.0295 1.45453 15.6089 0.937547 15.6089C0.419719 15.6089 0 15.1892 0 14.6714V14.2964V12.7494V11.1087C0.002625 9.78238 0.717281 8.55074 1.86511 7.89266L14.771 0.493206C15.6307 0.000268325 16.6308 -0.128216 17.587 0.131378C18.5433 0.390878 19.3413 1.00742 19.834 1.86721L20.6837 3.35019C20.9397 3.79696 20.7875 4.36663 20.3427 4.62613C20.0549 4.79403 19.8761 5.10463 19.8761 5.4366C19.8761 5.95358 20.2966 6.37414 20.8136 6.37414C20.977 6.37414 21.1317 6.33355 21.2733 6.25353C21.7223 5.9998 22.2918 6.15636 22.548 6.60364L23.5097 8.28191C24.4333 9.89375 24.0097 11.9152 22.5949 13.0349ZM20.7198 12.7494C20.7198 11.7155 19.8786 10.8743 18.8447 10.8743H9.89109C9.37327 10.8743 8.95355 10.4546 8.95355 9.93678C8.95355 9.41896 9.37327 8.99924 9.89109 8.99924H14.892C14.8915 8.9983 14.8908 8.99746 14.8903 8.99652C14.6328 8.54732 14.7883 7.97441 15.2375 7.71692C15.6867 7.45944 16.2596 7.61488 16.5171 8.06408C16.6892 8.36436 16.676 8.71958 16.5147 8.99924H18.8446C20.1779 8.99924 21.35 9.69917 22.0151 10.7503C22.1916 10.2607 22.161 9.69992 21.8826 9.21406L21.3048 8.20578C21.1431 8.23452 20.9786 8.24919 20.8134 8.24919C19.2625 8.24919 18.0008 6.98746 18.0008 5.43655C18.0008 4.76127 18.2467 4.11594 18.6735 3.61363L18.207 2.79941C17.9633 2.37421 17.5687 2.06933 17.0958 1.94094C16.623 1.81255 16.1286 1.87616 15.7035 2.11982L3.7028 9.00046C3.71864 9.00027 3.7343 8.99924 3.75019 8.99924H5.20341C5.72123 8.99924 6.14095 9.41896 6.14095 9.93678C6.14095 10.4546 5.72123 10.8743 5.20341 10.8743H3.75019C2.71627 10.8743 1.87509 11.7155 1.87509 12.7494V13.8945C2.96644 14.2814 3.75019 15.3242 3.75019 16.5465C3.75019 17.7688 2.96644 18.8115 1.87509 19.1985V20.2498C1.87509 21.2837 2.71627 22.1249 3.75019 22.1249H18.8447C19.8786 22.1249 20.7198 21.2837 20.7198 20.2498V19.1985C19.6284 18.8115 18.8447 17.7688 18.8447 16.5465C18.8447 15.3242 19.6284 14.2815 20.7198 13.8945V12.7494Z" fill="#003E66"/>
</svg>
