<svg width="15" height="14" viewBox="0 0 15 14" fill="none" xmlns="http://www.w3.org/2000/svg">
<path d="M6.44 11.4893V11.1879C5.70114 11.1623 5.12952 10.5849 5.12952 9.85185C5.12952 9.55041 5.37389 9.30604 5.67533 9.30604C5.97677 9.30604 6.22114 9.55041 6.22114 9.85185C6.22114 10.0131 6.3569 10.0975 6.49105 10.0975H7.3039C7.55852 10.0975 7.75053 9.91852 7.75053 9.68126V9.5473C7.75053 9.3049 7.55437 9.11502 7.3039 9.11502H6.80375C5.95722 9.11502 5.26857 8.41721 5.26857 7.55947V7.3604C5.26857 6.9479 5.42954 6.56322 5.72182 6.27721C5.92249 6.08085 6.16993 5.94619 6.44008 5.88239V5.51265C6.44008 5.21122 6.68445 4.96684 6.98589 4.96684C7.28733 4.96684 7.5317 5.21122 7.5317 5.51265V5.86364C8.16813 5.98059 8.65115 6.52642 8.65115 7.18054C8.65115 7.48197 8.40678 7.72634 8.10534 7.72634C7.80391 7.72634 7.55954 7.48197 7.55954 7.18054C7.55954 7.02481 7.41573 6.93176 7.27675 6.93176H6.80378C6.55091 6.93176 6.36021 7.11603 6.36021 7.36038V7.55944C6.36021 7.81092 6.56332 8.02338 6.80378 8.02338H7.30393C7.71367 8.02338 8.09854 8.17932 8.38761 8.46246C8.68074 8.74957 8.84218 9.13484 8.84218 9.5473V9.68126C8.84218 10.4507 8.2825 11.0683 7.5317 11.1732V11.4892C7.5317 11.7907 7.28733 12.0351 6.98589 12.0351C6.68437 12.0351 6.44 11.7907 6.44 11.4893ZM14 9.1696C14 9.47104 13.7556 9.71541 13.4542 9.71541C13.1528 9.71541 12.9084 9.47104 12.9084 9.1696C12.9084 7.42493 11.794 6.06642 10.6174 5.11819C11.3773 6.27664 11.7622 7.46332 11.7622 8.65111C11.7622 8.95255 11.5178 9.19692 11.2164 9.19692C10.9149 9.19692 10.6706 8.95255 10.6706 8.65111C10.6706 6.96083 9.69052 5.25116 7.75764 3.56966C7.749 3.56214 7.74063 3.55487 7.73254 3.54782H5.97587C5.66295 3.68123 4.58227 4.17144 3.52037 4.99813C1.90876 6.25276 1.09159 7.65629 1.09159 9.1696C1.09159 11.4212 2.39225 12.8527 4.48637 12.9069L9.3955 12.9084C10.6269 12.8807 12.8691 12.5 12.908 9.11502C13.0815 8.86849 13.0831 8.94155 13.3296 9.11502C13.5761 9.28849 14.1734 8.92307 14 9.1696C14 13.2032 11.0028 13.966 9.41303 13.9999C9.40909 14 9.40518 14 9.40125 14L4.47923 13.9985C4.4748 13.9985 4.47043 13.9985 4.46603 13.9984C3.16045 13.9663 2.04846 13.5058 1.25027 12.6664C0.432332 11.8064 0 10.5972 0 9.1696C0 8.12882 0.309285 7.12369 0.919215 6.18216C1.39412 5.44911 2.05127 4.75501 2.87243 4.11914C3.7727 3.42201 4.66668 2.95112 5.19384 2.70235L4.45771 0.797094C4.43349 0.734341 4.42105 0.667649 4.42105 0.600384V0.545806C4.42105 0.366513 4.50912 0.198623 4.65664 0.0967128C4.80419 -0.00519715 4.99237 -0.0281112 5.16007 0.0353262C6.38851 0.500361 7.58335 0.500278 8.81273 0.0352989C8.98043 -0.0281112 9.16858 -0.00514247 9.31607 0.0967675C9.46356 0.198677 9.55164 0.366513 9.55164 0.545806V0.600384C9.55164 0.667649 9.5392 0.734341 9.51497 0.797094L8.7792 2.70145C9.30877 2.95 10.2076 3.42091 11.1128 4.11832C11.9381 4.75408 12.5985 5.44809 13.0758 6.1811C13.689 7.12287 14 8.12835 14 9.1696ZM5.84656 1.36286L6.26896 2.45617H7.70372L8.12618 1.36273C7.3672 1.50964 6.60535 1.5097 5.84656 1.36286Z" fill="white"/>
</svg>
