<svg width="14" height="14" viewBox="0 0 14 14" fill="none" xmlns="http://www.w3.org/2000/svg">
<path d="M13.2149 12.3635C12.9805 12.0828 12.6288 11.9219 12.25 11.9219C11.8712 11.9219 11.5195 12.0828 11.2851 12.3635C10.997 12.7084 10.7108 12.9062 10.5 12.9062C10.4907 12.9062 10.481 12.9054 10.4714 12.9046C10.6465 12.5699 11.7752 9.59499 11.9716 9.13281C12.0897 8.85478 11.8073 8.76509 11.5294 8.64706C11.2514 8.52882 11.0285 8.58401 10.9105 8.86205C10.7588 9.21901 9.7254 11.9552 9.58665 12.2324C9.36096 12.0335 9.06499 11.9219 8.75 11.9219C8.37125 11.9219 8.01952 12.0828 7.78506 12.3635C7.49699 12.7084 7.21085 12.9062 7 12.9062C6.78915 12.9062 6.50301 12.7084 6.21494 12.3635C5.98048 12.0828 5.62875 11.9219 5.25 11.9219C4.89923 11.9219 4.57185 12.0602 4.33911 12.3035C3.75998 11.171 3.02618 9.23097 2.69048 7.81348C4.16832 7.78111 5.37646 7.62378 6.39844 7.14388V10.5547C6.39844 10.8568 6.64325 11.1016 6.94531 11.1016C7.24738 11.1016 7.49219 10.8568 7.49219 10.5547V7.14388C8.51405 7.62367 9.7222 7.78111 11.1999 7.81348C11.1246 8.13103 11.0271 8.48457 10.9105 8.86205C10.8213 9.15054 10.9829 9.45677 11.2715 9.54596C11.56 9.63515 11.8663 9.47354 11.9555 9.18494C12.1743 8.47688 12.3263 7.86304 12.4071 7.36038C12.4326 7.20219 12.3874 7.0407 12.2835 6.91882C12.1796 6.79684 12.0274 6.72656 11.8672 6.72656C11.4713 6.72656 11.1082 6.71973 10.7731 6.70509C10.7731 6.70306 10.7734 6.70114 10.7734 6.69922V4.10156C10.7734 3.7995 10.5286 3.55469 10.2266 3.55469H9.67969V2.57031H9.95312C10.2552 2.57031 10.5 2.3255 10.5 2.02344C10.5 1.72137 10.2552 1.47656 9.95312 1.47656H7.49219V0.546875C7.49219 0.244812 7.24738 0 6.94531 0C6.64325 0 6.39844 0.244812 6.39844 0.546875V1.47656H3.99219C3.69012 1.47656 3.44531 1.72137 3.44531 2.02344C3.44531 2.3255 3.69012 2.57031 3.99219 2.57031H4.21094V3.55469H3.66406C3.362 3.55469 3.11719 3.7995 3.11719 4.10156V6.69922C3.11719 6.70114 3.11751 6.70306 3.11751 6.70509C2.78255 6.71962 2.41939 6.72656 2.02344 6.72656C1.86322 6.72656 1.71101 6.79684 1.60709 6.91882C1.50327 7.0407 1.45808 7.20219 1.48351 7.36038C1.73761 8.93874 2.69272 11.5133 3.41487 12.8963C3.21535 12.8526 2.96594 12.664 2.71494 12.3635C2.48048 12.0828 2.12875 11.9219 1.75 11.9219C1.37125 11.9219 1.01952 12.0828 0.785065 12.3635C0.496994 12.7084 0.210846 12.9062 0 12.9062V14C0.559586 14 1.10614 13.6853 1.6245 13.0647C1.65024 13.034 1.69713 13.0156 1.75 13.0156C1.80287 13.0156 1.84976 13.034 1.8755 13.0648C2.39386 13.6853 2.94041 14 3.5 14C4.05959 14 4.60614 13.6853 5.1245 13.0647C5.15024 13.034 5.19713 13.0156 5.25 13.0156C5.30287 13.0156 5.34976 13.034 5.3755 13.0648C5.89386 13.6853 6.44041 14 7 14C7.55959 14 8.10614 13.6853 8.6245 13.0647C8.65024 13.034 8.69713 13.0156 8.75 13.0156C8.80287 13.0156 8.84976 13.034 8.8755 13.0648C9.39386 13.6853 9.94041 14 10.5 14C11.0596 14 11.6061 13.6853 12.1245 13.0647C12.1502 13.034 12.1971 13.0156 12.25 13.0156C12.3029 13.0156 12.3498 13.034 12.3755 13.0648C12.8939 13.6853 13.4404 14 14 14V12.9062C13.7892 12.9062 13.503 12.7084 13.2149 12.3635ZM8.58594 2.57031V3.55469H7.49219V2.57031H8.58594ZM5.30469 2.57031H6.39844V3.55469H5.30469V2.57031ZM4.21094 4.64844H9.67969V6.61729C8.60623 6.48132 7.89124 6.20853 7.27483 5.74326C7.27055 5.74005 7.26607 5.73717 7.26169 5.73407C7.25592 5.73001 7.25005 5.72585 7.24417 5.722C7.23595 5.71666 7.22762 5.71175 7.21918 5.70683C7.21341 5.70341 7.20764 5.69989 7.20166 5.69669C7.19066 5.69081 7.17934 5.68558 7.16801 5.68056C7.16129 5.67746 7.15445 5.67458 7.14751 5.67191C7.13618 5.66731 7.12476 5.66304 7.11322 5.6593C7.10681 5.65727 7.1003 5.65556 7.09378 5.65375C7.08417 5.65108 7.07455 5.64851 7.06494 5.64627C7.05832 5.64488 7.05159 5.64349 7.04497 5.64232C7.03429 5.64029 7.02371 5.63879 7.01303 5.63741C7.00726 5.63676 7.0015 5.63591 6.99573 5.63538C6.96219 5.63228 6.92854 5.63228 6.895 5.63538C6.88924 5.63591 6.88347 5.63676 6.8777 5.63741C6.86702 5.63879 6.85634 5.6404 6.84576 5.64232C6.83904 5.64349 6.83241 5.64488 6.82579 5.64627C6.81607 5.64851 6.80646 5.65108 6.79684 5.65375C6.79044 5.65556 6.78392 5.65727 6.77751 5.6593C6.76598 5.66304 6.75455 5.66731 6.74312 5.67191C6.73628 5.67468 6.72945 5.67757 6.72261 5.68056C6.71129 5.68558 6.70007 5.69081 6.68907 5.69669C6.68309 5.69989 6.67732 5.70341 6.67145 5.70683C6.66312 5.71175 6.65479 5.71666 6.64656 5.722C6.64058 5.72585 6.63481 5.73001 6.62904 5.73407C6.62466 5.73717 6.62018 5.73994 6.61591 5.74326C5.9995 6.20853 5.2845 6.48132 4.21104 6.61729L4.21094 4.64844ZM4.75781 8.58594C5.05988 8.58594 5.30469 8.83075 5.30469 9.13281C5.30469 9.43488 5.05988 9.67969 4.75781 9.67969C4.45575 9.67969 4.21094 9.43488 4.21094 9.13281C4.21094 8.83075 4.45575 8.58594 4.75781 8.58594ZM9.13281 8.58594C9.43488 8.58594 9.67969 8.83075 9.67969 9.13281C9.67969 9.43488 9.43488 9.67969 9.13281 9.67969C8.83075 9.67969 8.58594 9.43488 8.58594 9.13281C8.58594 8.83075 8.83075 8.58594 9.13281 8.58594Z" fill="white"/>
</svg>
