<svg width="14" height="14" viewBox="0 0 14 14" fill="none" xmlns="http://www.w3.org/2000/svg">
<path d="M8.20312 5.0039C7.90108 5.0039 7.65625 5.24873 7.65625 5.55077C7.65625 5.85281 7.90108 6.09764 8.20312 6.09764C8.50516 6.09764 8.75 5.85281 8.75 5.55077C8.75 5.24873 8.50513 5.0039 8.20312 5.0039ZM6.5625 5.55077C6.5625 5.85281 6.31767 6.09764 6.01563 6.09764C5.71359 6.09764 5.46875 5.85281 5.46875 5.55077C5.46875 5.24873 5.71359 5.0039 6.01563 5.0039C6.31767 5.0039 6.5625 5.24873 6.5625 5.55077ZM4.37501 5.55077C4.37501 5.85281 4.13017 6.09764 3.82813 6.09764C3.52609 6.09764 3.28126 5.85281 3.28126 5.55077C3.28126 5.24873 3.52609 5.0039 3.82813 5.0039C4.13017 5.0039 4.37501 5.24873 4.37501 5.55077ZM0.0398855 11.2247C-0.04354 11.4311 0.00641823 11.6674 0.166242 11.8223C0.270393 11.9233 0.407658 11.9765 0.547029 11.9766C0.621486 11.9766 0.696543 11.9613 0.7675 11.9301L3.7015 10.6367C4.06982 10.7775 4.4493 10.8828 4.83755 10.9526C5.23521 11.6066 5.80243 12.1604 6.49198 12.5636C7.26182 13.0136 8.15068 13.2541 9.06497 13.261C9.07839 13.262 9.09182 13.2631 9.10549 13.2631C9.73762 13.2631 10.35 13.1539 10.9294 12.9382L13.2325 13.9535C13.3035 13.9848 13.3785 14 13.453 14C13.5924 14 13.7296 13.9467 13.8338 13.8457C13.9936 13.6908 14.0435 13.4545 13.9601 13.2481L13.1614 11.2722C13.7112 10.5236 14 9.65377 14 8.73699C14 7.26938 13.2389 5.90687 11.9549 5.05659C11.8365 3.74904 11.2259 2.5364 10.2051 1.60212C9.07631 0.568995 7.57876 0 5.98828 0C4.39781 0 2.90023 0.568995 1.77142 1.60215C0.629087 2.64764 1.81198e-05 4.04156 1.81198e-05 5.52715C1.81198e-05 5.77299 0 8 1.18868 9C1.59491 9.70717 1.20124 9.04468 1.5 9C1.79873 8.95543 1.94522 8.37959 1.90065 8.08086C1 7 1.09377 5.71787 1.09377 5.52715C1.09377 3.08256 3.28944 1.09375 5.98828 1.09375C8.68713 1.09375 10.8828 3.08256 10.8828 5.52715C10.8828 7.66818 8.91605 9.96054 5.98828 9.96054C5.26083 9.96054 4.56051 9.81912 3.90677 9.54019C3.76759 9.4808 3.61001 9.48176 3.47154 9.54279L1.55863 10.386L2.20272 8.79283C2.31592 8.5128 2.18068 8.19406 1.90065 8.08086C1.62065 7.9676 1.30188 8.10292 1.18868 8.38289L0.0398855 11.2247ZM6.29899 11.0469C7.81397 10.9757 9.21697 10.3843 10.2777 9.36352C11.13 8.54315 11.6951 7.49885 11.8954 6.40715C12.5386 7.03501 12.9062 7.86306 12.9062 8.73699C12.9062 9.5006 12.634 10.2235 12.119 10.8277C11.9868 10.9828 11.9518 11.1986 12.0282 11.3875L12.4413 12.4094L11.1606 11.8449C11.0221 11.7838 10.8646 11.7829 10.7254 11.8423C10.2235 12.0565 9.686 12.1662 9.12758 12.1691C9.12017 12.1688 9.1129 12.1679 9.10544 12.1679C8.02809 12.1679 7.01025 11.7471 6.29899 11.0469Z" fill="white"/>
</svg>
