<svg width="14" height="14" viewBox="0 0 14 14" fill="none" xmlns="http://www.w3.org/2000/svg">
<path d="M-9.53674e-07 5.74219C-9.53674e-07 6.73944 0.368587 9.30912 2.93117 10.7503C3.0808 11.0126 2.46017 10.1553 2.72256 10.0056C2.9849 9.85592 3.61698 10.0593 3.4673 9.79696C1.47385 8.8421 1.09375 6.5497 1.09375 5.74219C1.09375 3.17904 3.17904 1.09375 5.74219 1.09375C8.30534 1.09375 10.3906 3.17904 10.3906 5.74219C10.3906 8.30534 8.30534 10.3906 5.74219 10.3906C4.94452 10.3906 4.15789 10.1853 3.4673 9.79696C3.20401 9.6489 2.87063 9.7423 2.72256 10.0056C2.57453 10.2688 2.6679 10.6022 2.93117 10.7503C3.78509 11.2305 4.75711 11.4844 5.74219 11.4844C7.12243 11.4844 8.39038 10.9948 9.38179 10.1802L13.0678 13.8411C13.1744 13.9471 13.3138 14 13.4531 14C13.5937 14 13.7343 13.9461 13.8411 13.8385C14.054 13.6242 14.0528 13.278 13.8385 13.0651L10.1575 9.40917C10.9856 8.41378 11.4844 7.13519 11.4844 5.74219C11.4844 2.57595 8.90844 0 5.74219 0C2.57595 0 -9.53674e-07 2.57595 -9.53674e-07 5.74219ZM5.71485 7.98438C5.41281 7.98438 5.16797 8.22921 5.16797 8.53125C5.16797 8.83329 5.41281 9.07812 5.71485 9.07812C6.01689 9.07812 6.26172 8.83329 6.26172 8.53125C6.26172 8.22921 6.01689 7.98438 5.71485 7.98438ZM6.28888 6.74606C6.28888 6.56879 6.39013 6.41099 6.54684 6.34408C7.30401 6.02085 7.79317 5.28 7.79298 4.45676C7.79298 4.44907 7.79281 4.44147 7.79248 4.43387C7.78015 3.31371 6.86507 2.40625 5.742 2.40625C4.61131 2.40625 3.69141 3.32615 3.69141 4.45684C3.69141 4.75888 3.93625 5.00371 4.23829 5.00371C4.54032 5.00371 4.78516 4.75888 4.78516 4.45684C4.78516 3.92924 5.2144 3.5 5.742 3.5C6.26963 3.5 6.69887 3.92924 6.69887 4.45684C6.69887 4.46212 6.69895 4.46739 6.69909 4.47264C6.69305 4.85073 6.46609 5.18927 6.1174 5.33816C5.55716 5.57733 5.19513 6.12995 5.19513 6.74603V6.78125C5.19513 7.08329 5.43996 7.32812 5.742 7.32812C6.04404 7.32812 6.28888 7.08329 6.28888 6.78125V6.74606Z" fill="white"/>
</svg>
