<svg width="17" height="17" viewBox="0 0 17 17" fill="none" xmlns="http://www.w3.org/2000/svg">
<path d="M14.1836 9.17605V3.49023C14.1836 2.60175 13.4608 1.87891 12.5723 1.87891H11.7227V1.43945C11.7227 1.19676 11.5259 1 11.2832 1C11.0405 1 10.8438 1.19676 10.8438 1.43945V1.87891H9.26172V1.43945C9.26172 1.19676 9.06496 1 8.82227 1C8.57957 1 8.38281 1.19676 8.38281 1.43945V1.87891H6.80078V1.43945C6.80078 1.19676 6.60402 1 6.36133 1C6.11863 1 5.92188 1.19676 5.92188 1.43945V1.87891H4.33984V1.43945C4.33984 1.19676 4.14309 1 3.90039 1C3.6577 1 3.46094 1.19676 3.46094 1.43945V1.87891H2.61133C1.72284 1.87891 1 2.60175 1 3.49023V12.2793C1 13.0062 1.59142 13.5977 2.31836 13.5977H8.89908C9.41377 14.9982 10.761 16 12.3379 16C14.3572 16 16 14.3572 16 12.3379C16 10.9913 15.2692 9.81224 14.1836 9.17605ZM1.87891 3.49023C1.87891 3.08638 2.20747 2.75781 2.61133 2.75781H3.46094V3.19727C3.46094 3.43996 3.6577 3.63672 3.90039 3.63672C4.14309 3.63672 4.33984 3.43996 4.33984 3.19727V2.75781H5.92188V3.19727C5.92188 3.43996 6.11863 3.63672 6.36133 3.63672C6.60402 3.63672 6.80078 3.43996 6.80078 3.19727V2.75781H8.38281V3.19727C8.38281 3.43996 8.57957 3.63672 8.82227 3.63672C9.06496 3.63672 9.26172 3.43996 9.26172 3.19727V2.75781H10.8438V3.19727C10.8438 3.43996 11.0405 3.63672 11.2832 3.63672C11.5259 3.63672 11.7227 3.43996 11.7227 3.19727V2.75781H12.5723C12.9761 2.75781 13.3047 3.08638 13.3047 3.49023V4.80859H1.87891V3.49023ZM2.31836 12.7188C2.07604 12.7188 1.87891 12.5216 1.87891 12.2793V5.6875H13.3047V8.80557C12.9966 8.72113 12.6724 8.67578 12.3379 8.67578C10.3186 8.67578 8.67578 10.3186 8.67578 12.3379C8.67578 12.4665 8.68252 12.5935 8.69553 12.7188H2.31836ZM12.3379 15.1211C10.8032 15.1211 9.55469 13.8725 9.55469 12.3379C9.55469 10.8032 10.8032 9.55469 12.3379 9.55469C13.8725 9.55469 15.1211 10.8032 15.1211 12.3379C15.1211 13.8725 13.8725 15.1211 12.3379 15.1211Z" fill="white" stroke="white" stroke-width="0.3"/>
</svg>
