<svg width="14" height="12" viewBox="0 0 14 12" fill="none" xmlns="http://www.w3.org/2000/svg">
<path d="M9.125 10.75V9.66667C9.125 9.09203 8.89673 8.54093 8.4904 8.1346C8.08407 7.72827 7.53297 7.5 6.95833 7.5H3.16667C2.59203 7.5 2.04093 7.72827 1.6346 8.1346C1.22827 8.54093 1 9.09203 1 9.66667V10.75" stroke="#313131" stroke-opacity="0.85" stroke-linecap="round" stroke-linejoin="round"/>
<path d="M5.06242 5.33333C6.25904 5.33333 7.22908 4.36328 7.22908 3.16667C7.22908 1.97005 6.25904 1 5.06242 1C3.8658 1 2.89575 1.97005 2.89575 3.16667C2.89575 4.36328 3.8658 5.33333 5.06242 5.33333Z" stroke="#313131" stroke-opacity="0.85" stroke-linecap="round" stroke-linejoin="round"/>
<path d="M9.6665 5.33333L10.7498 6.41667L12.9165 4.25" stroke="#313131" stroke-opacity="0.85" stroke-linecap="round" stroke-linejoin="round"/>
</svg>
