<svg width="115" height="44" viewBox="0 0 115 44" fill="none" xmlns="http://www.w3.org/2000/svg">
<path fill-rule="evenodd" clip-rule="evenodd" d="M111.944 34.3102H109.52C109.127 35.2032 108.676 35.942 109.996 36.043V36.2237H107.715V36.043C108.388 35.9394 108.65 35.2882 108.907 34.7275L111.36 29.3617H111.457L113.929 34.8763C114.162 35.3866 114.377 35.9925 115 36.043V36.2237H111.68V36.043C113.044 36.043 112.3 35.1341 111.942 34.3102H111.944ZM111.771 33.9435L110.75 31.6287L109.703 33.9435H111.771ZM83.7278 34.3102H81.3057C80.9129 35.2032 80.4626 35.942 81.7823 36.043V36.2237H79.4911V36.043C80.1641 35.942 80.4285 35.2856 80.6851 34.7275L83.157 29.3617H83.2538L85.7257 34.8763C85.9561 35.3866 86.1708 35.9925 86.794 36.043V36.2237H83.4659V36.043C84.8301 36.043 84.0865 35.1341 83.7278 34.3102ZM83.5549 33.9435L82.5364 31.6287L81.489 33.9435H83.5549ZM74.6889 33.1674H75.1392L77.3518 36.2317H79.5094V36.051C78.4254 35.9872 77.488 33.8345 76.9198 33.0558C78.737 32.612 79.0329 30.2281 77.1371 29.6779C75.6498 29.2474 73.6677 29.5105 72.1306 29.5105C72.1306 30.0872 73.0811 29.3856 73.0811 30.6905V35.0544C73.0811 36.3513 72.1306 35.663 72.1306 36.2317H75.642V36.051C74.1311 36.051 74.6889 34.2943 74.6889 33.1674ZM74.6889 29.872C75.8148 29.872 76.7836 29.957 76.7836 31.3735C76.7836 32.7422 75.7808 32.8166 74.6889 32.8166V29.864V29.872ZM69.6352 32.6678C70.5438 32.8751 71.5729 33.2498 71.5729 34.3767C71.5729 36.936 66.7314 36.237 65.2467 36.237C65.2467 35.6709 66.1972 36.3539 66.1972 35.0597V30.6825C66.1972 29.3776 65.2467 30.0766 65.2467 29.5025C66.7 29.5025 71.2692 28.8434 71.2692 31.1928C71.2692 32.1044 70.3867 32.4791 69.6457 32.6598L69.6352 32.6678ZM67.8023 32.5323C70.1327 32.5323 70.1589 29.8746 67.8023 29.8746V32.5323ZM67.8023 32.9203V35.3254C67.8023 36.5001 69.8054 35.6444 69.8054 34.4351C69.8054 33.2259 68.8419 32.915 67.8076 32.9203H67.8023ZM48.1901 36.2317V36.0483C48.9756 36.0483 49.1563 35.8862 49.1563 35.0809V30.6533C49.1563 29.856 48.9651 29.6886 48.1901 29.6859V29.5025C50.8609 29.5025 55.1002 28.9152 55.1002 32.8831C55.1002 36.8509 50.7928 36.2237 48.1848 36.2237L48.1901 36.2317ZM50.8085 29.8906V35.1367C50.8085 35.6337 50.8321 35.8649 51.3794 35.8649C53.8381 35.8649 53.9219 30.85 52.0156 30.042C51.6258 29.9171 51.2166 29.8657 50.8085 29.8906ZM101.164 21.0858C102.073 21.2931 103.102 21.6678 103.102 22.7946C103.102 25.3539 98.2602 24.655 96.7729 24.655C96.7729 24.0863 97.7261 24.7746 97.7261 23.4776V19.1005C97.7261 17.7956 96.7729 18.4946 96.7756 17.9205C98.2288 17.9205 102.798 17.2614 102.798 19.6108C102.798 20.5223 101.916 20.8971 101.175 21.0778L101.164 21.0858ZM99.3312 20.9502C101.662 20.9502 101.688 18.2926 99.3312 18.3059V20.9423V20.9502ZM99.3312 21.3382V23.7301C99.3312 24.9022 101.334 24.0517 101.334 22.8372C101.334 21.6226 100.371 21.3196 99.3364 21.325L99.3312 21.3382ZM55.8805 22.7362H53.4584C53.0656 23.6291 52.6127 24.368 53.9324 24.4663V24.6497H51.6517V24.4663C52.3246 24.3653 52.5891 23.7142 52.8457 23.1534L55.2992 17.7876H55.3961L57.8679 23.3022C58.0983 23.8125 58.313 24.4158 58.9362 24.4663V24.6497H55.6029V24.4663C56.9671 24.4663 56.2235 23.56 55.8648 22.7362H55.8805ZM55.7077 22.3694L54.6865 20.0546L53.6391 22.3694H55.7077ZM107.412 36.051V36.2317H103.824V36.051C104.61 36.051 104.793 35.8862 104.793 35.0809V30.6533C104.793 29.856 104.602 29.6859 103.824 29.6859V29.5025H107.412V29.6859C106.626 29.6859 106.44 29.8454 106.44 30.6533V35.073C106.44 35.8703 106.637 36.043 107.412 36.043V36.051ZM103.248 33.8717L102.987 36.2317H96.8855V36.051C97.6711 36.051 97.8517 35.8862 97.8517 35.0809V30.6533C97.8517 29.856 97.6632 29.6859 96.8855 29.6859V29.5025H100.551V29.6859C99.7501 29.6859 99.504 29.7922 99.504 30.6533V34.9348C99.504 36.0643 100.051 35.8463 100.983 35.8463C102.238 35.8463 102.699 34.964 103.028 33.8637L103.248 33.8717ZM96.4692 36.051V36.2317H92.8688V36.051C93.6544 36.051 93.835 35.8862 93.835 35.0809V30.6533C93.835 29.856 93.6465 29.6859 92.8688 29.6859V29.5025H96.4535V29.6859C95.6679 29.6859 95.4847 29.8454 95.4847 30.6533V35.073C95.4847 35.8703 95.6784 36.043 96.4535 36.043L96.4692 36.051ZM96.2074 27.2143L94.5184 28.9152H94.0811L94.6703 27.1957L96.2074 27.2143ZM91.7822 29.3564H91.6303C91.4417 30.2334 90.7871 29.577 90.2242 29.4361C88.0456 28.886 86.4038 31.3948 88.3075 32.8618C88.8809 33.303 92.2351 34.4245 90.7662 35.7427C89.457 36.9067 87.8859 35.0703 87.6398 33.8478H87.4538V36.3858C87.9435 36.3858 87.8361 35.7905 88.5536 36.0829C89.9937 36.6702 92.264 36.3486 92.264 34.3341C92.264 33.1143 91.1747 32.519 90.2242 32.0592C89.6062 31.7615 87.7812 30.9563 88.8521 29.9995C89.923 29.0428 91.4391 30.4885 91.6303 31.5941H91.8371L91.7822 29.3537V29.3564ZM58.368 29.8879V32.6359C59.4154 32.6359 59.7218 32.0273 59.8239 31.0413H60.0177V34.5627H59.8239C59.7218 33.6006 59.3683 33 58.368 33C58.368 33.481 58.1062 35.4822 58.5958 35.7746C58.8079 35.9075 59.1876 35.8543 59.4285 35.8543C60.6356 35.8543 61.463 35.2776 61.8034 34.0896H61.9893L61.6804 36.2158H55.7365V36.035C56.522 36.035 56.7027 35.8703 56.7027 35.065V30.6533C56.7027 29.856 56.5299 29.6859 55.7365 29.6859V29.5025H61.4761V31.4905H61.285C60.9367 29.7763 59.7846 29.8959 58.3523 29.8959L58.368 29.8879ZM106.286 18.3059V21.0432C107.333 21.0432 107.64 20.4373 107.744 19.4487H107.935V22.97H107.744C107.64 22.008 107.286 21.4073 106.286 21.4073C106.286 21.8857 106.024 23.8922 106.514 24.1819C106.726 24.3148 107.105 24.2617 107.349 24.2617C108.553 24.2617 109.383 23.6849 109.721 22.497H109.907L109.601 24.6231H103.665V24.4397C104.45 24.4397 104.634 24.2776 104.634 23.4723V19.0819C104.634 18.2846 104.461 18.1145 103.665 18.1145V17.9311H109.407V19.9191H109.216C108.868 18.2049 107.713 18.3245 106.281 18.3245L106.286 18.3059ZM89.3156 17.9205V18.1039C91.9497 18.072 87.8911 24.8012 92.7903 24.8012C97.6894 24.8012 93.6465 18.1039 96.3749 18.1039V17.9205H93.9974C93.9974 18.452 94.9819 17.9046 94.9819 19.1297C94.9819 20.6659 95.6732 24.2962 93.2511 24.2962C92.0492 24.2962 91.8502 23.467 91.8502 22.4199V19.1297C91.8502 17.7238 92.8505 18.5238 92.8505 17.9205H89.3156ZM88.6976 22.2711L88.4358 24.6311H82.3505V24.4477C83.136 24.4477 83.3167 24.2856 83.3167 23.4803V19.0819C83.3167 18.2846 83.1282 18.1145 82.3505 18.1145V17.9311H86.0163V18.1145C85.2151 18.1145 84.9689 18.2182 84.9689 19.0819V23.3634C84.9689 24.4902 85.5162 24.2749 86.4484 24.2749C87.7026 24.2749 88.1634 23.3953 88.4934 22.2923L88.6976 22.2711ZM81.5911 17.7531V20.0838H81.3947C81.1329 19.0208 80.3185 18.2022 79.1874 18.2022C75.5503 18.2022 76.4066 26.0768 80.3395 24.049C80.7727 23.8032 81.1578 23.479 81.4759 23.0923V23.6743C79.3654 25.827 75.0869 24.7533 75.0869 21.402C75.0869 18.6062 77.9855 17.1498 80.3683 18.072C80.816 18.2421 81.3005 18.4228 81.3947 17.7637L81.5911 17.7531ZM68.0013 18.2846V21.022C69.0356 21.022 69.3551 20.4134 69.4572 19.4274H69.6483V22.9488H69.4572C69.3551 21.9867 69.0016 21.3861 68.0013 21.3861C68.0013 21.8645 67.7395 23.871 68.2291 24.1607C68.4412 24.2935 68.8209 24.2404 69.0618 24.2404C70.2689 24.2404 71.099 23.6637 71.4341 22.4757H71.62L71.3137 24.6018H65.3855V24.4211C66.171 24.4211 66.3517 24.2563 66.3517 23.4511V19.0819C66.3517 18.2846 66.1789 18.1145 65.3855 18.1145V17.9311H71.1251V19.9191H70.934C70.5857 18.2049 69.4336 18.3245 68.0013 18.3245V18.2846ZM64.8042 17.8993H58.643V19.7197H58.8341C59.0383 18.4228 59.7925 18.2846 60.8948 18.2846V23.4697C60.8948 24.267 60.6958 24.4371 59.9234 24.4371V24.6204H63.5185V24.4371C62.733 24.4371 62.5445 24.2776 62.5445 23.4697V18.3059C63.7411 18.3059 64.291 18.4414 64.6261 19.741H64.8094V17.9205L64.8042 17.8993ZM51.3165 24.4371V24.6204H47.7318V24.4371C48.5174 24.4371 48.6981 24.2749 48.6981 23.4697V19.0819C48.6981 18.2846 48.5069 18.1145 47.7318 18.1145V17.9311H51.3165V18.1145C50.531 18.1145 50.3477 18.274 50.3477 19.0819V23.5016C50.3477 24.2989 50.5415 24.469 51.3165 24.469V24.4371ZM22.359 17.9551H22.0081L21.6625 17.9683L21.33 17.9896H21.3038L20.9895 18.0188H20.945C20.8482 18.0188 20.7539 18.0374 20.6596 18.0507H20.5837L20.3218 18.0879L20.2302 18.1012L19.9919 18.1411L19.8767 18.1624L19.6672 18.2022L19.5285 18.2315L19.3504 18.2713L19.1776 18.3112L19.0283 18.3484C19.2509 18.1411 19.1252 17.7425 18.8738 17.7425C18.9105 17.6977 18.9361 17.6446 18.9484 17.5877C18.9607 17.5309 18.9594 17.4718 18.9445 17.4156C18.3606 17.3704 18.3501 15.5153 18.2192 14.9944C18.0621 14.3752 17.6955 14.051 17.1299 14.2317C16.5041 14.431 16.491 14.9918 16.6927 15.4914C16.8943 15.9911 17.8369 17.5617 17.4468 17.8833C17.4563 17.941 17.4843 17.9938 17.5264 18.0337C17.5686 18.0736 17.6225 18.0983 17.6798 18.1039C17.6332 18.1488 17.5998 18.2059 17.5834 18.269C17.567 18.3321 17.5682 18.3986 17.587 18.461C17.6058 18.5234 17.6413 18.5792 17.6896 18.6222C17.7379 18.6652 17.7971 18.6937 17.8605 18.7045L17.7479 18.7444L17.5489 18.8188L17.4284 18.8666L17.2321 18.9437L17.1168 18.9915L16.9178 19.0766L16.8157 19.1218L16.601 19.2228L16.5094 19.2653L16.2999 19.3663L16.2187 19.4088L15.9909 19.5284L15.9464 19.5496L15.6846 19.6932L15.6584 19.7091C14.7749 20.2107 13.9486 20.8097 13.1944 21.495C13.2258 21.2293 12.964 21.0034 12.7624 21.1097C12.7725 21.0525 12.7695 20.9938 12.7536 20.938C12.7377 20.8822 12.7093 20.8309 12.6707 20.7881C12.147 21.03 11.2672 19.3955 10.9085 18.9995C10.4817 18.5265 10.013 18.4148 9.59926 18.8454C9.13842 19.3211 9.38455 19.8234 9.79565 20.1742C10.2067 20.525 11.7647 21.4552 11.5683 21.9203C11.6028 21.967 11.6515 22.0009 11.7069 22.0168C11.7623 22.0326 11.8212 22.0295 11.8747 22.008C11.8572 22.063 11.8531 22.1215 11.8629 22.1785C11.8727 22.2355 11.8959 22.2892 11.9308 22.335C11.9656 22.3808 12.0108 22.4173 12.0627 22.4414C12.1145 22.4654 12.1713 22.4763 12.2282 22.4731L12.1182 22.598L12.0344 22.691L11.8983 22.8504L11.8145 22.9541L11.6888 23.1056L11.5971 23.2225L11.4846 23.366L11.3903 23.4909L11.2882 23.6318L11.1939 23.7647L11.0918 23.9082C11.0604 23.9507 11.0316 23.9959 11.0028 24.0384L10.9059 24.1819C10.8771 24.2298 10.8456 24.2749 10.8168 24.3201L10.7304 24.4583L10.6362 24.6125C10.61 24.655 10.5838 24.6975 10.5602 24.74C10.5367 24.7826 10.4948 24.8463 10.466 24.9021C10.4372 24.958 10.4136 24.9898 10.39 25.035C10.3665 25.0802 10.3298 25.1413 10.301 25.1971C10.2722 25.253 10.2513 25.2875 10.2277 25.3327L10.1413 25.5001C10.1177 25.5426 10.0968 25.5878 10.0732 25.633C10.0496 25.6782 10.0182 25.7473 9.98942 25.8031C9.96061 25.8589 9.94752 25.8908 9.92919 25.9333C9.91086 25.9758 9.8742 26.0503 9.84802 26.1114C9.82183 26.1725 9.80874 26.1964 9.78779 26.2416L9.70924 26.425L9.65949 26.5446C9.63068 26.611 9.6045 26.6801 9.57832 26.7466L9.53642 26.8529C9.51023 26.9246 9.48143 26.9964 9.45525 27.0708L9.42121 27.1665C9.34003 26.9007 8.98393 26.8103 8.85038 27.0097C8.83384 26.954 8.80459 26.9031 8.76501 26.8611C8.72542 26.819 8.67662 26.7871 8.62258 26.7678C8.26123 27.2382 6.73729 26.2097 6.23717 26.0316C5.64278 25.819 5.17407 25.9466 5.00649 26.526C4.8232 27.1638 5.26833 27.488 5.79203 27.589C6.31572 27.69 8.12507 27.7777 8.16697 28.2827C8.21885 28.3069 8.27712 28.3133 8.3329 28.3008C8.38869 28.2884 8.43892 28.2577 8.47594 28.2136C8.48678 28.2731 8.51241 28.3289 8.5504 28.3756C8.58839 28.4223 8.6375 28.4585 8.69307 28.4805C8.74864 28.5026 8.80885 28.5099 8.86799 28.5018C8.92713 28.4937 8.98326 28.4704 9.03106 28.4342V28.4554C9.00749 28.5458 8.98655 28.6361 8.9656 28.7212V28.7823C8.94203 28.8753 8.9237 28.971 8.90275 29.064V29.1225L8.79278 29.4467V29.4919C8.77445 29.5929 8.75874 29.6939 8.74303 29.7975V29.8321C8.72732 29.9384 8.71161 30.0474 8.69851 30.1537V30.1723C8.68542 30.2812 8.67233 30.3928 8.66186 30.5018V30.531C8.66186 30.64 8.64091 30.749 8.63305 30.8579V30.8819C8.63305 30.9935 8.61734 31.1051 8.6121 31.2167V31.2353C8.6121 31.3496 8.6121 31.4612 8.6121 31.5755V31.5941C8.6121 31.711 8.6121 31.8253 8.6121 31.9423H0C4.41878 31.9179 8.77447 33.0067 12.6767 35.1111C16.5789 37.2155 19.9057 40.2697 22.359 44V31.9981H22.3773V31.9476H44.718C38.8758 28.6568 33.8346 24.0787 29.9652 18.55C26.0959 13.0213 23.4968 6.68256 22.359 0V17.9551ZM22.359 19.1829V26.9406C22.1498 26.9404 21.9408 26.9537 21.7332 26.9804L21.6154 26.9964L21.5001 27.015L21.3614 27.0548L21.2566 27.0788H21.2357L19.319 19.5656L19.4316 19.5364L19.5991 19.4965L19.7589 19.4619L19.8924 19.4354L20.0783 19.3982L20.1883 19.3796L20.4056 19.3424L20.4842 19.3291L20.7251 19.2945H20.7932L21.055 19.2626H21.0995L21.3876 19.236H21.4137L21.7149 19.2174L22.0317 19.2042H22.3564L22.359 19.1829ZM18.2506 19.8792L20.7408 27.217L20.6937 27.2356L20.6308 27.2568L20.5837 27.2754L20.5182 27.302L20.4711 27.3233L20.4109 27.3472L20.3559 27.3711L20.2983 27.3977L20.2459 27.4243L20.1962 27.4482L20.1386 27.4774L20.0862 27.504L20.0417 27.5279L19.9814 27.5598L19.9343 27.5864L19.8767 27.6209L19.8296 27.6502L19.7746 27.6847L19.7275 27.7139L19.6751 27.7485L19.628 27.7804L19.5808 27.8123L19.5285 27.8495L19.4813 27.8814L19.4368 27.9159L19.3844 27.9558L19.3399 27.9877L19.2876 28.0302L19.2483 28.0621L19.1933 28.1099L19.1566 28.1392L19.0964 28.1923L19.0728 28.2136C19.0645 28.2238 19.0548 28.2327 19.044 28.2402L13.9616 22.4465L14.0061 22.4066L14.0297 22.3854L14.2365 22.202L14.2627 22.1807L14.4696 22.008L14.501 21.9814L14.6765 21.8405L14.7472 21.7847L14.92 21.6545L14.9959 21.5987L15.1687 21.4738L15.2473 21.4206L15.4175 21.3037L15.4986 21.2479L15.6662 21.1389L15.7605 21.0805L15.915 20.9848L16.0171 20.9237L16.1716 20.8333L16.2816 20.7695L16.4361 20.6845L16.5565 20.6207L16.711 20.541L16.8262 20.4825L16.9859 20.4028L17.1038 20.3469L17.2609 20.2752L17.3918 20.2167L17.5384 20.1556L17.672 20.0998L17.8238 20.0387L17.9652 19.9855L18.1014 19.935L18.2506 19.8792ZM11.7045 25.1493L11.8223 24.9659L11.8511 24.9208L12.003 24.6922L12.0187 24.6709C12.3641 24.1656 12.7457 23.6868 13.1604 23.2385L18.6748 28.6096C18.3571 28.9722 18.0925 29.3795 17.8893 29.8188V29.848C17.8579 29.9118 17.8317 29.9783 17.8029 30.0447V30.0713L17.7715 30.1537V30.1829C17.7715 30.2095 17.7531 30.2334 17.7453 30.2573L17.7296 30.3025L10.5524 27.6236V27.605L10.5917 27.4907C10.6152 27.4322 10.6362 27.3738 10.6597 27.3126L10.7069 27.1904C10.7278 27.1399 10.7488 27.0894 10.7671 27.0389L10.8273 26.898C10.8456 26.8502 10.8666 26.805 10.8875 26.7572L10.953 26.611L11.0159 26.4755C11.0368 26.4276 11.0604 26.3798 11.0839 26.3293C11.1075 26.2788 11.1284 26.2416 11.1494 26.1964L11.2201 26.0556C11.241 26.0157 11.262 25.9785 11.2803 25.9386L11.372 25.7712C11.3883 25.7373 11.4067 25.7045 11.4269 25.6729C11.4584 25.6144 11.4898 25.5559 11.5238 25.5001L11.5788 25.4044L11.6862 25.2264L11.7385 25.1387L11.7045 25.1493ZM10.1806 28.7132L17.5463 30.8154V30.8393C17.5395 30.8638 17.5343 30.8886 17.5306 30.9137C17.5291 30.9305 17.5291 30.9474 17.5306 30.9642L17.5149 31.0387V31.0812C17.5149 31.1104 17.5149 31.1396 17.5018 31.1689V31.2034C17.5018 31.2353 17.5018 31.2646 17.4887 31.2964V31.3257C17.4887 31.3576 17.4887 31.3895 17.4756 31.4214V31.4506V31.5516V31.5728C17.4756 31.61 17.4756 31.6446 17.4756 31.6818V31.7004C17.4756 31.7376 17.4756 31.7775 17.4756 31.8147C17.4756 31.8546 17.4756 31.8944 17.4756 31.9343H9.78255C9.78255 31.828 9.78255 31.7217 9.78255 31.6154C9.78255 31.5117 9.78256 31.4054 9.79565 31.3018V31.2858C9.79565 31.1848 9.79565 31.0812 9.81398 30.9802V30.9589C9.81398 30.8606 9.82969 30.7623 9.84016 30.6639V30.6267L9.87158 30.3424V30.3105C9.88467 30.2174 9.89515 30.1244 9.91086 30.0314V29.9836C9.92657 29.8959 9.93966 29.8055 9.95537 29.7178V29.662C9.95537 29.5796 9.98679 29.4946 10.0025 29.3962L10.0156 29.3298C10.0313 29.2501 10.0496 29.1677 10.068 29.0879L10.0837 29.0162L10.1387 28.785L10.157 28.7132H10.1806Z" fill="white"/>
</svg>
